<svg width="59" height="58" viewBox="0 0 59 58" fill="none" xmlns="http://www.w3.org/2000/svg">
<path d="M58.399 43.4148C58.399 51.3601 51.9581 57.801 44.0128 57.801H15.1847C7.23942 57.801 0.798462 51.3601 0.798462 43.4148V14.5867C0.798462 6.64139 7.23942 0.200439 15.1847 0.200439H44.0128C51.9581 0.200439 58.399 6.64139 58.399 14.5867V43.4148Z" fill="#0866FF" style="fill:#0866FF;fill:color(display-p3 0.0314 0.4000 1.0000);fill-opacity:1;"/>
<path d="M29.597 11C39.7371 11 47.598 18.4282 47.598 28.4609C47.5978 38.4935 39.737 45.9209 29.597 45.9209C27.7761 45.9209 26.0285 45.6809 24.3861 45.2295C24.0672 45.141 23.7282 45.1657 23.4252 45.2988L19.8519 46.877C18.9174 47.2892 17.8624 46.6244 17.8314 45.6035L17.7338 42.4014C17.7215 42.0069 17.5447 41.6378 17.2504 41.375C13.7475 38.243 11.5962 33.709 11.5961 28.4609C11.5961 18.4281 19.457 11 29.597 11ZM40.7504 23.8008C41.3802 22.8274 40.2129 21.6939 39.2582 22.3525L32.7162 26.8652C32.496 27.0171 32.2054 27.0212 31.9808 26.876L26.1732 23.1191C25.6816 22.8011 25.0259 22.9418 24.7084 23.4326L18.4408 33.1182C17.8108 34.0915 18.9773 35.2249 19.932 34.5664L26.476 30.0537C26.6962 29.9018 26.9867 29.8976 27.2113 30.043L33.017 33.7988C33.5086 34.117 34.1644 33.9761 34.4828 33.4854V33.4863L40.7504 23.8008Z" fill="white" style="fill:white;fill-opacity:1;"/>
</svg>
