<svg width="58" height="58" viewBox="0 0 58 58" fill="none" xmlns="http://www.w3.org/2000/svg">
<path d="M57.9973 43.4148C57.9973 51.3601 51.5563 57.801 43.611 57.801H14.7829C6.83762 57.801 0.396667 51.3601 0.396667 43.4148V14.5867C0.396667 6.64139 6.83762 0.200439 14.7829 0.200439H43.611C51.5563 0.200439 57.9973 6.64139 57.9973 14.5867V43.4148Z" fill="#24CC63" style="fill:#24CC63;fill:color(display-p3 0.1412 0.8000 0.3882);fill-opacity:1;"/>
<path d="M11.0594 48.2001L13.7715 38.3393C12.0979 35.4529 11.2185 32.1808 11.2202 28.8256C11.225 18.336 19.8017 9.80005 30.3398 9.80005C35.4537 9.80165 40.2541 11.784 43.8648 15.3808C47.474 18.9776 49.461 23.7585 49.4594 28.8433C49.4546 39.3345 40.8778 47.8705 30.3398 47.8705C27.1406 47.8689 23.988 47.0705 21.1955 45.5537L11.0594 48.2001ZM21.665 42.1089C24.3594 43.7009 26.9316 44.6544 30.3333 44.6561C39.0917 44.6561 46.2264 37.5617 46.2313 28.84C46.2345 20.1008 39.1335 13.016 30.3462 13.0128C21.5814 13.0128 14.4515 20.1073 14.4483 28.8273C14.4467 32.3873 15.4949 35.0528 17.2552 37.8417L15.6492 43.6785L21.665 42.1089ZM39.9711 33.3665C39.8522 33.1681 39.5338 33.0497 39.0548 32.8113C38.5773 32.5729 36.2285 31.4225 35.7897 31.264C35.3524 31.1056 35.0341 31.0257 34.7141 31.5025C34.3958 31.9777 33.4795 33.0497 33.2014 33.3665C32.9232 33.6833 32.6435 33.7233 32.166 33.4849C31.6886 33.2465 30.1485 32.7457 28.3238 31.1249C26.9042 29.8641 25.9445 28.3072 25.6664 27.8305C25.3882 27.3552 25.6374 27.0977 25.8754 26.8608C26.0908 26.6481 26.3528 26.3057 26.5924 26.0273C26.8351 25.752 26.9139 25.5536 27.0747 25.2352C27.2338 24.9185 27.155 24.6401 27.0345 24.4017C26.9139 24.1649 25.959 21.824 25.5619 20.8721C25.1728 19.9457 24.779 20.0704 24.4864 20.056L23.57 20.04C23.2517 20.04 22.734 20.1584 22.2968 20.6352C21.8595 21.112 20.6248 22.2608 20.6248 24.6017C20.6248 26.9424 22.337 29.2033 22.5749 29.5201C22.8144 29.8369 25.9429 34.6401 30.7352 36.6993C31.8751 37.1889 32.7657 37.4817 33.4586 37.7009C34.6032 38.0625 35.645 38.0113 36.4681 37.8897C37.386 37.7537 39.2943 36.7393 39.693 35.6289C40.0917 34.5168 40.0917 33.5649 39.9711 33.3665Z" fill="#FAFAFA" style="fill:#FAFAFA;fill:color(display-p3 0.9816 0.9816 0.9816);fill-opacity:1;"/>
</svg>
