<svg width="58" height="58" viewBox="0 0 58 58" fill="none" xmlns="http://www.w3.org/2000/svg">
<circle cx="17.4539" cy="17.6961" r="13.2" fill="white" style="fill:white;fill-opacity:1;"/>
<path d="M57.7998 43.4149C57.7998 51.3602 51.3588 57.8011 43.4135 57.8011H14.5855C6.64017 57.8011 0.199219 51.3602 0.199219 43.4149V14.5868C0.199219 6.64152 6.64017 0.200562 14.5855 0.200562H43.4135C51.3589 0.200562 57.7998 6.64152 57.7998 14.5868V43.4149ZM40.6504 16.0404C39.5672 16.0595 37.9048 16.6378 29.9072 19.9642C27.106 21.1294 21.5077 23.5409 13.1123 27.1986C11.7492 27.7407 11.035 28.2709 10.9697 28.7894C10.8449 29.7851 12.2776 30.0958 14.0811 30.682C15.5515 31.16 17.5303 31.7184 18.5586 31.7406C19.4913 31.7607 20.5323 31.3765 21.6816 30.5873C29.5261 25.2921 33.5759 22.6157 33.8301 22.558C34.0093 22.5173 34.2575 22.4662 34.4258 22.6156C34.5942 22.7653 34.5774 23.0493 34.5596 23.1254C34.413 23.7366 27.048 30.436 26.624 30.8763C25.0036 32.5593 23.1606 33.5896 26.0039 35.4633C28.4642 37.0846 29.8969 38.1181 32.4316 39.7797C34.0513 40.8414 35.3209 42.1013 36.9932 41.9476C37.7627 41.8768 38.5582 41.1527 38.9619 38.9945C39.916 33.894 41.7912 22.8424 42.2246 18.2885C42.2625 17.8895 42.2151 17.3787 42.1768 17.1547C42.1384 16.9306 42.0577 16.6116 41.7666 16.3754C41.4215 16.0954 40.8886 16.0362 40.6504 16.0404Z" fill="#25A2DF" style="fill:#25A2DF;fill:color(display-p3 0.1451 0.6353 0.8745);fill-opacity:1;"/>
</svg>
