<svg width="336" height="306" viewBox="0 0 336 306" fill="none" xmlns="http://www.w3.org/2000/svg">
<g filter="url(#filter0_d_3349_4884)">
<g clip-path="url(#clip0_3349_4884)">
<path d="M42 83.2C42 68.0786 42 60.5179 44.9428 54.7423C47.5314 49.6619 51.6619 45.5314 56.7423 42.9428C62.5179 40 70.0786 40 85.2 40H250.8C265.921 40 273.482 40 279.258 42.9428C284.338 45.5314 288.469 49.6619 291.057 54.7423C294 60.5179 294 68.0786 294 83.2V218.8C294 233.921 294 241.482 291.057 247.258C288.469 252.338 284.338 256.469 279.258 259.057C273.482 262 265.921 262 250.8 262H85.2C70.0786 262 62.5179 262 56.7423 259.057C51.6619 256.469 47.5314 252.338 44.9428 247.258C42 241.482 42 233.921 42 218.8V83.2Z" fill="#FAFAFA" fill-opacity="0.7" style="fill:#FAFAFA;fill:color(display-p3 0.9816 0.9816 0.9816);fill-opacity:0.7;" shape-rendering="crispEdges"/>
<rect x="42" y="40.1533" width="252" height="221.769" rx="16.8632" fill="white" fill-opacity="0.6" style="fill:white;fill-opacity:0.6;"/>
<rect x="42" y="40.1533" width="252" height="221.769" rx="16.8632" fill="#FAFAFA" style="fill:#FAFAFA;fill:color(display-p3 0.9804 0.9804 0.9804);fill-opacity:1;"/>
<path d="M44.5997 91.5562C44.5997 88.583 44.5997 87.0964 45.1784 85.9608C45.6873 84.9619 46.4995 84.1497 47.4984 83.6408C48.634 83.0621 50.1206 83.0621 53.0938 83.0621H114.176C117.149 83.0621 118.636 83.0621 119.772 83.6408C120.77 84.1497 121.583 84.9619 122.092 85.9608C122.67 87.0964 122.67 88.583 122.67 91.5562V103.923C122.67 106.896 122.67 108.382 122.092 109.518C121.583 110.517 120.77 111.329 119.772 111.838C118.636 112.417 117.149 112.417 114.176 112.417H53.0938C50.1206 112.417 48.634 112.417 47.4984 111.838C46.4995 111.329 45.6873 110.517 45.1784 109.518C44.5997 108.382 44.5997 106.896 44.5997 103.923V91.5562Z" fill="white" style="fill:white;fill-opacity:1;"/>
<g style="mix-blend-mode:plus-darker">
<path d="M85.0308 102.427H83.7542V94.2346H83.6911C83.4432 94.4123 83.1954 94.59 82.9476 94.7677C82.7044 94.9454 82.4589 95.1231 82.2111 95.3008C81.9679 95.4784 81.7224 95.6585 81.4746 95.8408V94.5432C81.8534 94.258 82.2321 93.9751 82.6109 93.6945C82.9943 93.4139 83.3754 93.1334 83.7542 92.8528H85.0308V102.427Z" fill="#202329" style="fill:#202329;fill:color(display-p3 0.1255 0.1373 0.1608);fill-opacity:1;"/>
</g>
<path d="M126.886 91.5562C126.886 88.583 126.886 87.0964 127.465 85.9608C127.974 84.9619 128.786 84.1497 129.785 83.6408C130.92 83.0621 132.407 83.0621 135.38 83.0621H196.462C199.436 83.0621 200.922 83.0621 202.058 83.6408C203.057 84.1497 203.869 84.9619 204.378 85.9608C204.957 87.0964 204.957 88.583 204.957 91.5562V103.923C204.957 106.896 204.957 108.382 204.378 109.518C203.869 110.517 203.057 111.329 202.058 111.838C200.922 112.417 199.436 112.417 196.462 112.417H135.38C132.407 112.417 130.92 112.417 129.785 111.838C128.786 111.329 127.974 110.517 127.465 109.518C126.886 108.382 126.886 106.896 126.886 103.923V91.5562Z" fill="white" style="fill:white;fill-opacity:1;"/>
<g style="mix-blend-mode:plus-darker">
<path d="M164.161 95.5182H162.905V95.4691C162.905 95.1044 162.971 94.7536 163.102 94.417C163.233 94.0803 163.427 93.781 163.684 93.5192C163.941 93.2526 164.259 93.0422 164.638 92.8879C165.016 92.7336 165.454 92.6564 165.949 92.6564C166.557 92.6564 167.086 92.771 167.535 93.0001C167.983 93.2246 168.329 93.5355 168.573 93.933C168.82 94.3305 168.944 94.7794 168.944 95.2797C168.944 95.6772 168.87 96.0419 168.72 96.3739C168.575 96.7012 168.379 97.0216 168.131 97.3349C167.888 97.6435 167.616 97.9685 167.317 98.3098L164.771 101.228V101.305H169.127V102.427H162.94V101.613L166.546 97.5102C166.719 97.3091 166.889 97.101 167.058 96.8859C167.226 96.6662 167.364 96.4324 167.471 96.1845C167.584 95.9367 167.64 95.6655 167.64 95.3709C167.64 95.0436 167.565 94.7583 167.415 94.5152C167.266 94.272 167.06 94.085 166.798 93.954C166.541 93.8231 166.249 93.7576 165.921 93.7576C165.552 93.7576 165.234 93.8371 164.967 93.9961C164.705 94.1551 164.504 94.3655 164.364 94.6274C164.229 94.8846 164.161 95.1651 164.161 95.4691C164.161 95.4738 164.161 95.4831 164.161 95.4971C164.161 95.5065 164.161 95.5135 164.161 95.5182Z" fill="#202329" style="fill:#202329;fill:color(display-p3 0.1255 0.1373 0.1608);fill-opacity:1;"/>
</g>
<path d="M209.172 91.5562C209.172 88.583 209.172 87.0964 209.751 85.9608C210.26 84.9619 211.072 84.1497 212.071 83.6408C213.207 83.0621 214.693 83.0621 217.666 83.0621H278.749C281.722 83.0621 283.209 83.0621 284.344 83.6408C285.343 84.1497 286.155 84.9619 286.664 85.9608C287.243 87.0964 287.243 88.583 287.243 91.5562V103.923C287.243 106.896 287.243 108.382 286.664 109.518C286.155 110.517 285.343 111.329 284.344 111.838C283.209 112.417 281.722 112.417 278.749 112.417H217.666C214.693 112.417 213.207 112.417 212.071 111.838C211.072 111.329 210.26 110.517 209.751 109.518C209.172 108.382 209.172 106.896 209.172 103.923V91.5562Z" fill="white" style="fill:white;fill-opacity:1;"/>
<g style="mix-blend-mode:plus-darker">
<path d="M247.064 98.0433V96.9421H248.053C248.39 96.9421 248.689 96.8719 248.951 96.7316C249.218 96.5914 249.426 96.3973 249.575 96.1495C249.725 95.9016 249.797 95.6211 249.793 95.3078C249.793 94.8448 249.631 94.4684 249.309 94.1785C248.986 93.8886 248.568 93.7436 248.053 93.7436C247.796 93.7436 247.565 93.781 247.359 93.8558C247.158 93.926 246.98 94.0242 246.826 94.1504C246.671 94.272 246.55 94.4123 246.461 94.5713C246.377 94.7303 246.328 94.8986 246.314 95.0763H245.086C245.096 94.7677 245.166 94.4707 245.297 94.1855C245.428 93.8956 245.617 93.6384 245.865 93.4139C246.117 93.1848 246.426 93.0025 246.791 92.8668C247.155 92.7312 247.579 92.6611 248.06 92.6564C248.668 92.6517 249.197 92.757 249.645 92.9721C250.094 93.1872 250.445 93.4794 250.698 93.8488C250.95 94.2182 251.081 94.6367 251.09 95.1044C251.104 95.5533 251.013 95.9414 250.817 96.2687C250.625 96.596 250.389 96.8556 250.108 97.0473C249.828 97.2343 249.566 97.3489 249.323 97.391V97.4611C249.594 97.4892 249.889 97.5874 250.207 97.7557C250.529 97.924 250.807 98.1742 251.041 98.5062C251.28 98.8335 251.404 99.2544 251.413 99.7688C251.422 100.185 251.343 100.568 251.175 100.919C251.011 101.27 250.775 101.574 250.466 101.831C250.162 102.088 249.802 102.287 249.386 102.427C248.97 102.563 248.514 102.631 248.018 102.631C247.382 102.631 246.83 102.523 246.363 102.308C245.9 102.088 245.537 101.794 245.276 101.424C245.018 101.05 244.878 100.636 244.855 100.183H246.061C246.094 100.435 246.197 100.664 246.37 100.87C246.543 101.071 246.772 101.232 247.057 101.354C247.347 101.471 247.677 101.532 248.046 101.536C248.467 101.536 248.832 101.462 249.14 101.312C249.454 101.158 249.695 100.947 249.863 100.681C250.031 100.409 250.113 100.103 250.108 99.7617C250.104 99.4157 250.015 99.1141 249.842 98.8569C249.673 98.5997 249.44 98.401 249.14 98.2607C248.846 98.1158 248.502 98.0433 248.109 98.0433H247.064Z" fill="#202329" style="fill:#202329;fill:color(display-p3 0.1255 0.1373 0.1608);fill-opacity:1;"/>
</g>
<path d="M65.3676 60.1619V60.1703M68.6986 60.1619V60.1703M72.0296 60.1619V60.1703M75.3607 60.1619V60.1703M65.3676 63.4929V63.5013M75.3607 63.4929V63.5013M68.6986 63.4929L72.0296 63.5013M62.0366 58.4964C62.0366 58.0547 62.2121 57.6311 62.5244 57.3187C62.8368 57.0064 63.2604 56.8309 63.7021 56.8309H77.0262C77.4679 56.8309 77.8915 57.0064 78.2038 57.3187C78.5162 57.6311 78.6917 58.0547 78.6917 58.4964V65.1585C78.6917 65.6002 78.5162 66.0238 78.2038 66.3361C77.8915 66.6485 77.4679 66.824 77.0262 66.824H63.7021C63.2604 66.824 62.8368 66.6485 62.5244 66.3361C62.2121 66.0238 62.0366 65.6002 62.0366 65.1585V58.4964Z" stroke="#202329" style="stroke:#202329;stroke:color(display-p3 0.1255 0.1373 0.1608);stroke-opacity:1;" stroke-width="0.936846" stroke-linecap="round" stroke-linejoin="round"/>
<g filter="url(#filter2_d_3349_4884)">
<rect x="127.199" y="48.0869" width="78.0705" height="29.9791" rx="4.99651" fill="#FAFAFA" fill-opacity="0.7" style="fill:#FAFAFA;fill:color(display-p3 0.9816 0.9816 0.9816);fill-opacity:0.7;" shape-rendering="crispEdges"/>
<rect x="127.512" y="48.3992" width="77.4459" height="29.3545" rx="4.68423" stroke="url(#paint0_linear_3349_4884)" style="" stroke-width="0.624564" shape-rendering="crispEdges"/>
<g style="mix-blend-mode:plus-darker">
<path d="M155.841 65.9169H157.881C157.933 66.1901 158.034 66.4406 158.183 66.6683C158.34 66.896 158.538 67.0944 158.779 67.2636C159.026 67.4262 159.312 67.5531 159.638 67.6442C159.963 67.7287 160.324 67.771 160.721 67.771C161.28 67.771 161.755 67.6897 162.146 67.5271C162.536 67.3644 162.832 67.1335 163.034 66.8342C163.242 66.5349 163.346 66.1869 163.346 65.79C163.346 65.4712 163.274 65.198 163.131 64.9703C162.988 64.7426 162.767 64.5474 162.468 64.3847C162.175 64.2221 161.797 64.0855 161.336 63.9749L159.257 63.4576C158.613 63.3015 158.06 63.0705 157.598 62.7648C157.136 62.459 156.781 62.0816 156.534 61.6327C156.287 61.1773 156.163 60.6504 156.163 60.0518C156.163 59.3101 156.359 58.6596 156.749 58.1001C157.139 57.5405 157.676 57.1047 158.359 56.7924C159.042 56.4736 159.829 56.3142 160.721 56.3142C161.619 56.3142 162.396 56.4671 163.053 56.7729C163.71 57.0721 164.227 57.482 164.605 58.0025C164.982 58.5229 165.2 59.1052 165.259 59.7493H163.229C163.164 59.4045 163.021 59.1052 162.799 58.8515C162.585 58.5912 162.298 58.3896 161.941 58.2464C161.589 58.0968 161.176 58.022 160.701 58.022C159.953 58.022 159.358 58.2009 158.915 58.5587C158.479 58.91 158.262 59.3654 158.262 59.925C158.262 60.3413 158.411 60.6894 158.71 60.9691C159.01 61.2489 159.442 61.4571 160.008 61.5937L162.077 62.1012C162.793 62.2768 163.398 62.5143 163.892 62.8136C164.393 63.1063 164.774 63.4837 165.034 63.9456C165.294 64.401 165.425 64.9572 165.425 65.6143C165.425 66.3885 165.229 67.0684 164.839 67.6539C164.455 68.233 163.899 68.6851 163.17 69.0104C162.442 69.3292 161.57 69.4886 160.555 69.4886C159.82 69.4886 159.169 69.4008 158.603 69.2251C158.037 69.0429 157.556 68.7892 157.159 68.4639C156.762 68.1386 156.45 67.7613 156.222 67.3319C156.001 66.896 155.874 66.4243 155.841 65.9169ZM160.028 70.8841V54.9187H161.17V70.8841H160.028ZM169.269 62.4427V63.3893C169.269 64.3847 169.38 65.224 169.601 65.9071C169.822 66.5902 170.132 67.1107 170.528 67.4685C170.932 67.8198 171.407 67.9955 171.953 67.9955C172.506 67.9955 172.981 67.8198 173.378 67.4685C173.781 67.1107 174.09 66.5902 174.305 65.9071C174.526 65.224 174.637 64.3847 174.637 63.3893V62.4427C174.637 61.4538 174.526 60.6178 174.305 59.9347C174.09 59.2516 173.781 58.7311 173.378 58.3733C172.981 58.0155 172.506 57.8366 171.953 57.8366C171.407 57.8366 170.932 58.0155 170.528 58.3733C170.132 58.7246 169.822 59.2451 169.601 59.9347C169.38 60.6178 169.269 61.4538 169.269 62.4427ZM167.074 63.4088V62.433C167.074 61.1383 167.262 60.0095 167.64 59.0467C168.024 58.0773 168.58 57.3259 169.309 56.7924C170.037 56.2589 170.925 55.9922 171.973 55.9922C173.027 55.9922 173.911 56.2589 174.627 56.7924C175.349 57.3193 175.896 58.0675 176.267 59.0369C176.644 59.9998 176.833 61.1318 176.833 62.433V63.4088C176.833 64.3587 176.728 65.2272 176.52 66.0144C176.319 66.8017 176.01 67.4815 175.593 68.054C175.183 68.6266 174.673 69.069 174.061 69.3812C173.456 69.687 172.75 69.8399 171.943 69.8399C170.896 69.8399 170.008 69.5764 169.279 69.0494C168.557 68.516 168.007 67.7678 167.63 66.8049C167.259 65.8355 167.074 64.7035 167.074 63.4088Z" fill="#306FF6" style="fill:#306FF6;fill:color(display-p3 0.1882 0.4353 0.9647);fill-opacity:1;"/>
</g>
</g>
<path d="M44.5997 124.658C44.5997 121.685 44.5997 120.198 45.1784 119.063C45.6873 118.064 46.4995 117.252 47.4984 116.743C48.634 116.164 50.1206 116.164 53.0938 116.164H114.176C117.149 116.164 118.636 116.164 119.772 116.743C120.77 117.252 121.583 118.064 122.092 119.063C122.67 120.198 122.67 121.685 122.67 124.658V137.024C122.67 139.998 122.67 141.484 122.092 142.62C121.583 143.619 120.77 144.431 119.772 144.94C118.636 145.519 117.149 145.519 114.176 145.519H53.0938C50.1206 145.519 48.634 145.519 47.4984 144.94C46.4995 144.431 45.6873 143.619 45.1784 142.62C44.5997 141.484 44.5997 139.998 44.5997 137.024V124.658Z" fill="white" style="fill:white;fill-opacity:1;"/>
<g style="mix-blend-mode:plus-darker">
<path d="M84.1119 125.955H86.0198V132.443H87.2613V133.565H86.0198V135.529H84.7853V133.565H80.1349V132.436C80.7334 131.351 81.3764 130.271 82.0638 129.195C82.7512 128.115 83.4339 127.035 84.1119 125.955ZM81.4115 132.443H84.7853V127.063H84.7151C84.1587 127.895 83.5929 128.77 83.0177 129.686C82.4472 130.603 81.9118 131.501 81.4115 132.38V132.443Z" fill="#202329" style="fill:#202329;fill:color(display-p3 0.1255 0.1373 0.1608);fill-opacity:1;"/>
</g>
<path d="M126.886 124.658C126.886 121.685 126.886 120.198 127.465 119.063C127.974 118.064 128.786 117.252 129.785 116.743C130.92 116.164 132.407 116.164 135.38 116.164H196.462C199.436 116.164 200.922 116.164 202.058 116.743C203.057 117.252 203.869 118.064 204.378 119.063C204.957 120.198 204.957 121.685 204.957 124.658V137.024C204.957 139.998 204.957 141.484 204.378 142.62C203.869 143.619 203.057 144.431 202.058 144.94C200.922 145.519 199.436 145.519 196.462 145.519H135.38C132.407 145.519 130.92 145.519 129.785 144.94C128.786 144.431 127.974 143.619 127.465 142.62C126.886 141.484 126.886 139.998 126.886 137.024V124.658Z" fill="white" style="fill:white;fill-opacity:1;"/>
<g style="mix-blend-mode:plus-darker">
<path d="M162.786 133.299H164.02C164.067 133.537 164.154 133.74 164.28 133.909C164.406 134.077 164.561 134.215 164.743 134.323C164.925 134.43 165.122 134.51 165.332 134.561C165.547 134.608 165.765 134.631 165.984 134.631C166.312 134.631 166.63 134.549 166.938 134.386C167.252 134.217 167.506 133.97 167.703 133.642C167.904 133.31 168.004 132.908 168.004 132.436C168.004 132.01 167.909 131.648 167.717 131.349C167.53 131.045 167.28 130.811 166.966 130.647C166.658 130.484 166.323 130.402 165.963 130.402C165.636 130.402 165.346 130.458 165.094 130.57C164.846 130.678 164.638 130.813 164.469 130.977C164.301 131.136 164.172 131.295 164.084 131.454H162.989L163.417 125.955H168.825V127.07H164.511L164.252 130.135H164.322C164.392 130.032 164.509 129.918 164.673 129.791C164.841 129.661 165.056 129.548 165.318 129.455C165.58 129.361 165.889 129.315 166.244 129.315C166.8 129.315 167.31 129.438 167.773 129.686C168.236 129.929 168.605 130.28 168.881 130.738C169.162 131.197 169.302 131.751 169.302 132.401C169.302 133.055 169.157 133.633 168.867 134.133C168.582 134.634 168.184 135.024 167.675 135.305C167.17 135.585 166.581 135.725 165.907 135.725C165.468 135.725 165.061 135.665 164.687 135.543C164.317 135.426 163.995 135.258 163.719 135.038C163.443 134.818 163.223 134.561 163.059 134.267C162.901 133.967 162.809 133.645 162.786 133.299Z" fill="#202329" style="fill:#202329;fill:color(display-p3 0.1255 0.1373 0.1608);fill-opacity:1;"/>
</g>
<path d="M209.172 124.658C209.172 121.685 209.172 120.198 209.751 119.063C210.26 118.064 211.072 117.252 212.071 116.743C213.207 116.164 214.693 116.164 217.666 116.164H278.749C281.722 116.164 283.209 116.164 284.344 116.743C285.343 117.252 286.155 118.064 286.664 119.063C287.243 120.198 287.243 121.685 287.243 124.658V137.024C287.243 139.998 287.243 141.484 286.664 142.62C286.155 143.619 285.343 144.431 284.344 144.94C283.209 145.519 281.722 145.519 278.749 145.519H217.666C214.693 145.519 213.207 145.519 212.071 144.94C211.072 144.431 210.26 143.619 209.751 142.62C209.172 141.484 209.172 139.998 209.172 137.024V124.658Z" fill="white" style="fill:white;fill-opacity:1;"/>
<g style="mix-blend-mode:plus-darker">
<path d="M251.42 127.94H250.129C250.097 127.79 250.015 127.633 249.884 127.47C249.753 127.306 249.568 127.166 249.33 127.049C249.091 126.932 248.792 126.874 248.432 126.874C248.165 126.874 247.915 126.925 247.681 127.028C247.448 127.126 247.235 127.28 247.043 127.491C246.856 127.697 246.692 127.956 246.552 128.269C246.412 128.578 246.304 128.945 246.23 129.371C246.155 129.791 246.117 130.268 246.117 130.802C246.117 130.802 246.129 130.802 246.152 130.802C246.176 130.802 246.187 130.802 246.187 130.802C246.281 130.577 246.428 130.355 246.629 130.135C246.83 129.915 247.097 129.733 247.429 129.588C247.761 129.438 248.158 129.364 248.621 129.364C249.122 129.364 249.599 129.481 250.052 129.714C250.51 129.948 250.887 130.292 251.182 130.745C251.476 131.199 251.623 131.758 251.623 132.422C251.623 133.123 251.478 133.722 251.189 134.217C250.903 134.708 250.51 135.082 250.01 135.34C249.514 135.597 248.951 135.725 248.32 135.725C247.974 135.725 247.632 135.681 247.296 135.592C246.959 135.503 246.641 135.354 246.342 135.143C246.047 134.928 245.788 134.641 245.563 134.281C245.343 133.925 245.17 133.49 245.044 132.976C244.918 132.457 244.855 131.837 244.855 131.117C244.855 130.378 244.911 129.719 245.023 129.139C245.14 128.559 245.304 128.059 245.514 127.638C245.729 127.213 245.984 126.864 246.279 126.593C246.578 126.317 246.912 126.111 247.282 125.976C247.651 125.84 248.049 125.772 248.474 125.772C248.923 125.772 249.325 125.836 249.68 125.962C250.041 126.088 250.344 126.256 250.592 126.467C250.845 126.673 251.041 126.904 251.182 127.161C251.322 127.414 251.401 127.673 251.42 127.94ZM246.293 132.485C246.293 132.938 246.386 133.324 246.573 133.642C246.76 133.96 247.008 134.203 247.317 134.372C247.625 134.54 247.962 134.624 248.327 134.624C248.701 134.624 249.04 134.549 249.344 134.4C249.652 134.245 249.898 134.012 250.08 133.698C250.263 133.38 250.354 132.981 250.354 132.499C250.354 132.031 250.256 131.646 250.059 131.342C249.863 131.038 249.613 130.813 249.309 130.668C249.005 130.519 248.68 130.444 248.334 130.444C247.941 130.444 247.59 130.533 247.282 130.71C246.973 130.883 246.73 131.124 246.552 131.433C246.379 131.737 246.293 132.087 246.293 132.485Z" fill="#202329" style="fill:#202329;fill:color(display-p3 0.1255 0.1373 0.1608);fill-opacity:1;"/>
</g>
<path d="M44.5997 157.76C44.5997 154.787 44.5997 153.3 45.1784 152.165C45.6873 151.166 46.4995 150.354 47.4984 149.845C48.634 149.266 50.1206 149.266 53.0938 149.266H114.176C117.149 149.266 118.636 149.266 119.772 149.845C120.77 150.354 121.583 151.166 122.092 152.165C122.67 153.3 122.67 154.787 122.67 157.76V170.127C122.67 173.1 122.67 174.586 122.092 175.722C121.583 176.721 120.77 177.533 119.772 178.042C118.636 178.621 117.149 178.621 114.176 178.621H53.0938C50.1206 178.621 48.634 178.621 47.4984 178.042C46.4995 177.533 45.6873 176.721 45.1784 175.722C44.5997 174.586 44.5997 173.1 44.5997 170.127V157.76Z" fill="white" style="fill:white;fill-opacity:1;"/>
<g style="mix-blend-mode:plus-darker">
<path d="M80.6048 159.057H86.7282V160.221L82.8143 168.631H81.4606L85.4236 160.256V160.179H80.6048V159.057Z" fill="#202329" style="fill:#202329;fill:color(display-p3 0.1255 0.1373 0.1608);fill-opacity:1;"/>
</g>
<path d="M126.886 157.76C126.886 154.787 126.886 153.3 127.465 152.165C127.974 151.166 128.786 150.354 129.785 149.845C130.92 149.266 132.407 149.266 135.38 149.266H196.462C199.436 149.266 200.922 149.266 202.058 149.845C203.057 150.354 203.869 151.166 204.378 152.165C204.957 153.3 204.957 154.787 204.957 157.76V170.127C204.957 173.1 204.957 174.586 204.378 175.722C203.869 176.721 203.057 177.533 202.058 178.042C200.922 178.621 199.436 178.621 196.462 178.621H135.38C132.407 178.621 130.92 178.621 129.785 178.042C128.786 177.533 127.974 176.721 127.465 175.722C126.886 174.586 126.886 173.1 126.886 170.127V157.76Z" fill="white" style="fill:white;fill-opacity:1;"/>
<g style="mix-blend-mode:plus-darker">
<path d="M165.928 167.768C166.335 167.768 166.7 167.694 167.022 167.544C167.345 167.39 167.6 167.177 167.787 166.906C167.974 166.634 168.068 166.321 168.068 165.966C168.068 165.606 167.974 165.29 167.787 165.019C167.6 164.743 167.345 164.53 167.022 164.381C166.7 164.226 166.335 164.149 165.928 164.149C165.521 164.149 165.154 164.226 164.827 164.381C164.504 164.53 164.247 164.743 164.056 165.019C163.868 165.29 163.775 165.606 163.775 165.966C163.775 166.321 163.868 166.634 164.056 166.906C164.247 167.177 164.504 167.39 164.827 167.544C165.154 167.694 165.521 167.768 165.928 167.768ZM165.928 163.118C166.274 163.118 166.581 163.05 166.847 162.915C167.118 162.774 167.329 162.585 167.478 162.346C167.633 162.103 167.71 161.825 167.71 161.512C167.71 161.194 167.633 160.918 167.478 160.684C167.329 160.446 167.118 160.261 166.847 160.13C166.581 159.999 166.274 159.934 165.928 159.934C165.582 159.934 165.274 159.999 165.002 160.13C164.731 160.261 164.518 160.446 164.364 160.684C164.21 160.918 164.133 161.194 164.133 161.512C164.133 161.825 164.21 162.103 164.364 162.346C164.518 162.585 164.731 162.774 165.002 162.915C165.274 163.05 165.582 163.118 165.928 163.118ZM165.893 168.827C165.234 168.827 164.649 168.711 164.14 168.477C163.63 168.238 163.23 167.909 162.94 167.488C162.655 167.067 162.512 166.578 162.512 166.022C162.512 165.643 162.573 165.313 162.695 165.033C162.821 164.752 162.982 164.516 163.179 164.324C163.375 164.128 163.586 163.971 163.81 163.854C164.034 163.738 164.247 163.656 164.448 163.609V163.546C164.229 163.471 163.997 163.347 163.754 163.174C163.511 162.996 163.305 162.763 163.137 162.473C162.973 162.183 162.891 161.83 162.891 161.414C162.891 160.918 163.022 160.478 163.284 160.095C163.546 159.711 163.904 159.41 164.357 159.19C164.815 158.97 165.339 158.86 165.928 158.86C166.517 158.86 167.039 158.97 167.492 159.19C167.951 159.41 168.311 159.711 168.573 160.095C168.834 160.478 168.965 160.918 168.965 161.414C168.965 161.839 168.879 162.199 168.706 162.494C168.533 162.784 168.325 163.015 168.082 163.188C167.838 163.356 167.609 163.476 167.394 163.546V163.609C167.595 163.656 167.808 163.738 168.033 163.854C168.257 163.971 168.467 164.128 168.664 164.324C168.865 164.521 169.026 164.759 169.148 165.04C169.269 165.316 169.33 165.638 169.33 166.008C169.33 166.564 169.183 167.055 168.888 167.481C168.594 167.902 168.187 168.231 167.668 168.47C167.149 168.708 166.557 168.827 165.893 168.827Z" fill="#202329" style="fill:#202329;fill:color(display-p3 0.1255 0.1373 0.1608);fill-opacity:1;"/>
</g>
<path d="M209.172 157.76C209.172 154.787 209.172 153.3 209.751 152.165C210.26 151.166 211.072 150.354 212.071 149.845C213.207 149.266 214.693 149.266 217.666 149.266H278.749C281.722 149.266 283.209 149.266 284.344 149.845C285.343 150.354 286.155 151.166 286.664 152.165C287.243 153.3 287.243 154.787 287.243 157.76V170.127C287.243 173.1 287.243 174.586 286.664 175.722C286.155 176.721 285.343 177.533 284.344 178.042C283.209 178.621 281.722 178.621 278.749 178.621H217.666C214.693 178.621 213.207 178.621 212.071 178.042C211.072 177.533 210.26 176.721 209.751 175.722C209.172 174.586 209.172 173.1 209.172 170.127V157.76Z" fill="white" style="fill:white;fill-opacity:1;"/>
<g style="mix-blend-mode:plus-darker">
<path d="M245.051 166.786H246.349C246.391 166.936 246.477 167.083 246.608 167.228C246.744 167.369 246.924 167.485 247.148 167.579C247.373 167.668 247.642 167.712 247.955 167.712C248.395 167.712 248.769 167.612 249.077 167.411C249.386 167.205 249.631 166.924 249.814 166.569C250.001 166.209 250.132 165.795 250.207 165.327C250.286 164.855 250.319 164.35 250.305 163.812H250.235C250.136 164.074 249.982 164.32 249.772 164.549C249.566 164.778 249.304 164.96 248.986 165.096C248.668 165.232 248.292 165.299 247.857 165.299C247.291 165.299 246.777 165.173 246.314 164.921C245.851 164.663 245.481 164.294 245.205 163.812C244.934 163.326 244.799 162.749 244.799 162.08C244.799 161.402 244.946 160.822 245.241 160.34C245.535 159.859 245.933 159.489 246.433 159.232C246.938 158.975 247.504 158.846 248.13 158.846C248.551 158.846 248.963 158.917 249.365 159.057C249.772 159.197 250.139 159.443 250.466 159.793C250.798 160.144 251.062 160.63 251.259 161.252C251.455 161.869 251.553 162.66 251.553 163.623C251.553 164.769 251.422 165.727 251.16 166.499C250.899 167.266 250.499 167.843 249.961 168.231C249.428 168.619 248.75 168.813 247.927 168.813C247.483 168.813 247.088 168.757 246.742 168.645C246.4 168.538 246.11 168.39 245.872 168.203C245.633 168.012 245.444 167.794 245.304 167.551C245.168 167.308 245.084 167.053 245.051 166.786ZM250.087 162.136C250.087 161.664 249.996 161.266 249.814 160.944C249.636 160.616 249.395 160.368 249.091 160.2C248.787 160.027 248.441 159.941 248.053 159.941C247.698 159.941 247.368 160.027 247.064 160.2C246.765 160.368 246.524 160.614 246.342 160.937C246.164 161.255 246.075 161.643 246.075 162.101C246.075 162.578 246.169 162.973 246.356 163.286C246.543 163.595 246.788 163.826 247.092 163.981C247.401 164.13 247.733 164.205 248.088 164.205C248.43 164.205 248.752 164.13 249.056 163.981C249.365 163.826 249.613 163.597 249.8 163.293C249.991 162.985 250.087 162.599 250.087 162.136Z" fill="#202329" style="fill:#202329;fill:color(display-p3 0.1255 0.1373 0.1608);fill-opacity:1;"/>
</g>
<g style="mix-blend-mode:plus-darker">
<path d="M82.3996 201.757V200.005H84.1809V201.757H82.3996Z" fill="#202329" style="fill:#202329;fill:color(display-p3 0.1255 0.1373 0.1608);fill-opacity:1;"/>
</g>
<g style="mix-blend-mode:plus-lighter">
<path d="M126.886 190.862C126.886 187.889 126.886 186.402 127.465 185.267C127.974 184.268 128.786 183.456 129.785 182.947C130.92 182.368 132.407 182.368 135.38 182.368H196.392C199.365 182.368 200.852 182.368 201.987 182.947C202.986 183.456 203.798 184.268 204.307 185.267C204.886 186.402 204.886 187.889 204.886 190.862V202.874C204.886 205.847 204.886 207.334 204.307 208.469C203.798 209.468 202.986 210.28 201.987 210.789C200.852 211.368 199.365 211.368 196.392 211.368H135.38C132.407 211.368 130.92 211.368 129.785 210.789C128.786 210.28 127.974 209.468 127.465 208.469C126.886 207.334 126.886 205.847 126.886 202.874V190.862Z" fill="#202329" style="fill:#202329;fill:color(display-p3 0.1255 0.1373 0.1608);fill-opacity:1;"/>
</g>
<g style="mix-blend-mode:plus-darker">
<path d="M163.434 196.805V197.142C163.434 197.909 163.521 198.568 163.694 199.12C163.872 199.672 164.119 200.097 164.437 200.397C164.76 200.691 165.139 200.839 165.574 200.839C166.018 200.839 166.399 200.691 166.717 200.397C167.035 200.097 167.281 199.672 167.454 199.12C167.627 198.568 167.713 197.909 167.713 197.142V196.805C167.713 196.039 167.627 195.379 167.454 194.827C167.281 194.271 167.035 193.845 166.717 193.551C166.399 193.252 166.018 193.102 165.574 193.102C165.139 193.102 164.76 193.252 164.437 193.551C164.119 193.845 163.872 194.271 163.694 194.827C163.521 195.379 163.434 196.039 163.434 196.805ZM162.151 197.156V196.798C162.151 195.835 162.286 194.993 162.558 194.273C162.829 193.549 163.219 192.987 163.729 192.59C164.243 192.188 164.863 191.987 165.588 191.987C166.313 191.987 166.927 192.188 167.433 192.59C167.942 192.987 168.33 193.546 168.597 194.266C168.863 194.982 168.997 195.826 168.997 196.798V197.156C168.997 197.881 168.92 198.538 168.765 199.127C168.616 199.716 168.393 200.224 168.099 200.649C167.809 201.07 167.451 201.393 167.026 201.617C166.6 201.842 166.116 201.954 165.574 201.954C164.854 201.954 164.236 201.755 163.722 201.358C163.212 200.96 162.822 200.404 162.551 199.688C162.284 198.968 162.151 198.124 162.151 197.156Z" fill="#202329" style="fill:#202329;fill:color(display-p3 0.1255 0.1373 0.1608);fill-opacity:1;"/>
</g>
<g style="mix-blend-mode:plus-darker">
<path d="M252.77 203.125H247.025C246.745 203.125 246.483 203.095 246.24 203.034C246.001 202.978 245.774 202.887 245.559 202.76C245.349 202.634 245.148 202.471 244.956 202.269L241.126 198.264C240.893 198.021 240.724 197.797 240.621 197.591C240.523 197.381 240.474 197.173 240.474 196.967C240.474 196.827 240.495 196.689 240.537 196.553C240.584 196.417 240.654 196.277 240.748 196.132C240.846 195.987 240.972 195.833 241.126 195.669L244.949 191.65C245.141 191.444 245.342 191.283 245.552 191.166C245.767 191.045 245.994 190.958 246.233 190.907C246.476 190.85 246.738 190.822 247.018 190.822H252.77C253.476 190.822 254.009 191 254.369 191.355C254.729 191.706 254.909 192.232 254.909 192.934V201.049C254.909 201.75 254.729 202.272 254.369 202.613C254.009 202.955 253.476 203.125 252.77 203.125ZM252.728 201.94C253.046 201.94 253.289 201.856 253.457 201.687C253.63 201.519 253.717 201.269 253.717 200.937V193.018C253.717 192.686 253.63 192.436 253.457 192.267C253.289 192.099 253.046 192.015 252.728 192.015H246.983C246.745 192.015 246.539 192.045 246.366 192.106C246.193 192.162 246.022 192.277 245.854 192.45L242.052 196.441C241.87 196.637 241.779 196.812 241.779 196.967C241.779 197.046 241.797 197.128 241.835 197.212C241.877 197.292 241.949 197.388 242.052 197.5L245.861 201.47C246.029 201.643 246.198 201.764 246.366 201.835C246.539 201.905 246.747 201.94 246.99 201.94H252.728ZM247.102 199.597C246.99 199.714 246.855 199.772 246.696 199.772C246.537 199.772 246.401 199.716 246.289 199.604C246.181 199.492 246.128 199.359 246.128 199.204C246.128 199.05 246.186 198.914 246.303 198.797L250.743 194.372C250.846 194.259 250.979 194.203 251.143 194.203C251.297 194.203 251.43 194.257 251.542 194.365C251.655 194.472 251.711 194.605 251.711 194.764C251.711 194.919 251.652 195.05 251.535 195.157L247.102 199.597ZM250.736 199.597L246.303 195.157C246.186 195.05 246.128 194.919 246.128 194.764C246.128 194.605 246.181 194.472 246.289 194.365C246.401 194.257 246.537 194.203 246.696 194.203C246.855 194.203 246.986 194.259 247.088 194.372L251.535 198.797C251.652 198.914 251.711 199.05 251.711 199.204C251.711 199.359 251.655 199.492 251.542 199.604C251.43 199.716 251.297 199.772 251.143 199.772C250.984 199.772 250.848 199.714 250.736 199.597Z" fill="#202329" style="fill:#202329;fill:color(display-p3 0.1255 0.1373 0.1608);fill-opacity:1;"/>
</g>
<path d="M273.971 60.5775L276.469 63.0758L278.967 60.5775" stroke="#202329" style="stroke:#202329;stroke:color(display-p3 0.1255 0.1373 0.1608);stroke-opacity:1;" stroke-width="0.936846" stroke-linecap="round" stroke-linejoin="round"/>
<g style="mix-blend-mode:plus-darker">
<path d="M249.638 65.083H248.647V58.4226H249.755L251.79 63.141H251.829L253.863 58.4226H254.966V65.083H253.966V60.4476H253.907L252.2 64.3755H251.404L249.696 60.4476H249.638V65.083ZM261.666 58.4226L259.504 61.7748L261.631 65.083H260.338L258.811 62.5994H258.757L257.22 65.083H256.001L258.118 61.726L256.025 58.4226H257.338L258.855 60.9306H258.909L260.412 58.4226H261.666ZM263.715 65.083H262.651V58.4226H263.627L266.735 63.2044H266.784V58.4226H267.848V65.083H266.877L263.759 60.2866H263.715V65.083Z" fill="#202329" style="fill:#202329;fill:color(display-p3 0.1255 0.1373 0.1608);fill-opacity:1;"/>
</g>
<path d="M56.6237 59.3284L54.1255 61.8266L56.6237 64.3249" stroke="#202329" style="stroke:#202329;stroke:color(display-p3 0.1255 0.1373 0.1608);stroke-opacity:1;" stroke-width="0.936846" stroke-linecap="round" stroke-linejoin="round"/>
<rect x="54.9238" y="218.307" width="226.154" height="30.6923" rx="7.49477" fill="#306FF6" style="fill:#306FF6;fill:color(display-p3 0.1882 0.4353 0.9647);fill-opacity:1;"/>
<path d="M163.256 234.863H164.48C164.51 235.024 164.568 235.173 164.656 235.308C164.748 235.44 164.865 235.555 165.007 235.654C165.154 235.749 165.322 235.824 165.512 235.879C165.706 235.93 165.919 235.956 166.149 235.956C166.479 235.956 166.759 235.908 166.989 235.813C167.22 235.714 167.395 235.579 167.516 235.407C167.641 235.231 167.703 235.026 167.703 234.792C167.703 234.51 167.606 234.287 167.412 234.122C167.218 233.954 166.918 233.82 166.512 233.722L165.282 233.414C164.901 233.323 164.574 233.187 164.299 233.008C164.025 232.829 163.814 232.604 163.668 232.333C163.522 232.062 163.448 231.749 163.448 231.394C163.448 230.955 163.564 230.569 163.794 230.236C164.029 229.903 164.349 229.643 164.755 229.456C165.161 229.27 165.628 229.176 166.155 229.176C166.689 229.176 167.15 229.266 167.538 229.445C167.93 229.625 168.237 229.868 168.46 230.175C168.687 230.483 168.815 230.829 168.845 231.213H167.637C167.597 231.012 167.511 230.836 167.379 230.686C167.251 230.532 167.082 230.413 166.874 230.329C166.665 230.241 166.422 230.197 166.144 230.197C165.705 230.197 165.353 230.302 165.09 230.51C164.83 230.719 164.7 230.99 164.7 231.323C164.7 231.568 164.79 231.773 164.969 231.938C165.148 232.099 165.405 232.219 165.738 232.3L166.962 232.602C167.383 232.704 167.741 232.843 168.038 233.019C168.334 233.195 168.559 233.418 168.713 233.689C168.87 233.959 168.949 234.291 168.949 234.682C168.949 235.143 168.834 235.548 168.603 235.895C168.372 236.239 168.041 236.506 167.609 236.697C167.178 236.887 166.66 236.982 166.056 236.982C165.62 236.982 165.234 236.929 164.898 236.823C164.561 236.717 164.274 236.569 164.036 236.378C163.798 236.184 163.613 235.959 163.481 235.703C163.353 235.443 163.278 235.163 163.256 234.863ZM172.764 236.933C172.241 236.933 171.787 236.83 171.403 236.625C171.018 236.417 170.722 236.119 170.513 235.731C170.305 235.339 170.2 234.871 170.2 234.325V233.54C170.2 232.991 170.31 232.523 170.53 232.135C170.749 231.747 171.046 231.451 171.419 231.246C171.796 231.037 172.22 230.933 172.693 230.933C173.179 230.933 173.607 231.041 173.977 231.257C174.35 231.469 174.643 231.769 174.855 232.157C175.068 232.545 175.174 233.006 175.174 233.54V234.221H171.408V234.507C171.408 234.92 171.525 235.266 171.759 235.544C171.997 235.818 172.33 235.956 172.758 235.956C172.971 235.956 173.159 235.926 173.324 235.868C173.488 235.806 173.62 235.725 173.719 235.626C173.821 235.524 173.887 235.412 173.917 235.291H175.108C175.09 235.46 175.029 235.639 174.927 235.829C174.828 236.02 174.683 236.199 174.493 236.367C174.306 236.532 174.069 236.667 173.779 236.774C173.494 236.88 173.155 236.933 172.764 236.933ZM171.408 233.425H173.983C173.983 233.414 173.983 233.403 173.983 233.392C173.983 233.378 173.983 233.363 173.983 233.348C173.983 233.055 173.929 232.801 173.823 232.585C173.717 232.366 173.567 232.195 173.373 232.075C173.183 231.954 172.958 231.894 172.698 231.894C172.438 231.894 172.211 231.954 172.017 232.075C171.823 232.195 171.673 232.366 171.567 232.585C171.461 232.801 171.408 233.055 171.408 233.348C171.408 233.363 171.408 233.378 171.408 233.392C171.408 233.403 171.408 233.414 171.408 233.425ZM176.711 236.834V231.032H177.907V232.075H177.968C178.019 231.921 178.105 231.756 178.226 231.581C178.35 231.405 178.531 231.255 178.769 231.131C179.007 231.006 179.322 230.944 179.713 230.944C180.295 230.944 180.766 231.107 181.124 231.432C181.486 231.758 181.668 232.252 181.668 232.915V236.834H180.449V233.271C180.449 232.975 180.4 232.733 180.301 232.547C180.206 232.357 180.072 232.216 179.9 232.124C179.728 232.029 179.527 231.981 179.296 231.981C179 231.981 178.749 232.053 178.544 232.195C178.343 232.335 178.189 232.527 178.083 232.772C177.981 233.017 177.929 233.297 177.929 233.612V236.834H176.711ZM185.422 230.955C185.697 230.955 185.946 230.993 186.169 231.07C186.392 231.143 186.582 231.251 186.74 231.394C186.901 231.537 187.018 231.707 187.091 231.905H187.151V228.946H188.37V236.834H187.184V235.906H187.124C187.084 236.056 187.011 236.194 186.904 236.318C186.798 236.439 186.668 236.543 186.515 236.631C186.361 236.719 186.191 236.786 186.004 236.834C185.818 236.885 185.618 236.911 185.406 236.911C184.959 236.911 184.571 236.812 184.242 236.614C183.913 236.413 183.657 236.126 183.474 235.753C183.294 235.379 183.205 234.938 183.205 234.43V233.436C183.205 232.924 183.296 232.483 183.479 232.113C183.666 231.744 183.926 231.458 184.259 231.257C184.592 231.056 184.979 230.955 185.422 230.955ZM185.763 231.954C185.492 231.954 185.258 232.02 185.06 232.152C184.866 232.28 184.714 232.468 184.604 232.717C184.498 232.962 184.445 233.26 184.445 233.612V234.249C184.445 234.6 184.498 234.9 184.604 235.149C184.714 235.398 184.87 235.588 185.071 235.72C185.272 235.848 185.512 235.912 185.79 235.912C186.065 235.912 186.302 235.848 186.504 235.72C186.709 235.592 186.868 235.41 186.981 235.176C187.095 234.938 187.151 234.655 187.151 234.325V233.447C187.151 233.147 187.091 232.885 186.97 232.662C186.85 232.439 186.685 232.265 186.476 232.141C186.271 232.016 186.033 231.954 185.763 231.954Z" fill="white" style="fill:white;fill-opacity:1;"/>
<path d="M159.161 236.424C159.161 238.304 157.637 239.827 155.757 239.827H150.073C148.193 239.827 146.67 238.304 146.67 236.424V230.74C146.67 228.86 148.193 227.336 150.073 227.336H155.757C157.637 227.336 159.161 228.86 159.161 230.74V236.424ZM153.401 231.938C153.122 232.44 152.706 232.43 152.421 231.936L151.338 230.061C151.23 229.873 150.989 229.808 150.8 229.917C150.611 230.025 150.546 230.267 150.655 230.456L151.737 232.33C152.022 232.825 151.824 233.189 151.25 233.18L149.079 233.185C148.859 233.185 148.681 233.364 148.682 233.584C148.683 233.803 148.86 233.98 149.079 233.98L151.235 233.984C151.81 233.993 152.006 234.334 151.727 234.836L150.652 236.705C150.543 236.895 150.608 237.137 150.797 237.247C150.987 237.358 151.231 237.294 151.342 237.103L152.43 235.226C152.71 234.724 153.125 234.734 153.411 235.229L154.493 237.103C154.602 237.292 154.843 237.356 155.032 237.247C155.221 237.138 155.285 236.897 155.176 236.708L154.094 234.834C153.808 234.34 154.007 233.974 154.582 233.984L156.754 233.979C156.973 233.978 157.15 233.8 157.15 233.58C157.149 233.361 156.971 233.184 156.752 233.185L154.579 233.19C154.004 233.18 153.807 232.839 154.087 232.337L155.177 230.459C155.288 230.269 155.223 230.026 155.034 229.916C154.844 229.806 154.601 229.87 154.491 230.06L153.401 231.938Z" fill="white" style="fill:white;fill-opacity:1;"/>
</g>
<path d="M85.2002 40.5H250.8C258.369 40.5 264.016 40.5004 268.493 40.8662C272.964 41.2315 276.225 41.9593 279.03 43.3887C284.017 45.9293 288.071 49.9834 290.611 54.9697C292.041 57.7752 292.768 61.0357 293.134 65.5068C293.5 69.9841 293.5 75.6312 293.5 83.2002V218.8C293.5 226.369 293.5 232.016 293.134 236.493C292.768 240.964 292.041 244.225 290.611 247.03C288.071 252.017 284.017 256.071 279.03 258.611C276.225 260.041 272.964 260.768 268.493 261.134C264.016 261.5 258.369 261.5 250.8 261.5H85.2002C77.6312 261.5 71.9841 261.5 67.5068 261.134C63.0357 260.768 59.7752 260.041 56.9697 258.611C51.9834 256.071 47.9293 252.017 45.3887 247.03C43.9593 244.225 43.2315 240.964 42.8662 236.493C42.5004 232.016 42.5 226.369 42.5 218.8V83.2002C42.5 75.6312 42.5004 69.9841 42.8662 65.5068C43.2315 61.0357 43.9593 57.7752 45.3887 54.9697C47.9293 49.9834 51.9834 45.9293 56.9697 43.3887C59.7752 41.9593 63.0357 41.2315 67.5068 40.8662C71.9841 40.5004 77.6312 40.5 85.2002 40.5Z" stroke="url(#paint1_linear_3349_4884)" style="" shape-rendering="crispEdges"/>
</g>
<defs>
<filter id="filter0_d_3349_4884" x="0" y="0" width="336" height="306" filterUnits="userSpaceOnUse" color-interpolation-filters="sRGB">
<feFlood flood-opacity="0" result="BackgroundImageFix"/>
<feColorMatrix in="SourceAlpha" type="matrix" values="0 0 0 0 0 0 0 0 0 0 0 0 0 0 0 0 0 0 127 0" result="hardAlpha"/>
<feOffset dy="2"/>
<feGaussianBlur stdDeviation="21"/>
<feComposite in2="hardAlpha" operator="out"/>
<feColorMatrix type="matrix" values="0 0 0 0 0 0 0 0 0 0 0 0 0 0 0 0 0 0 0.1 0"/>
<feBlend mode="normal" in2="BackgroundImageFix" result="effect1_dropShadow_3349_4884"/>
<feBlend mode="normal" in="SourceGraphic" in2="effect1_dropShadow_3349_4884" result="shape"/>
</filter>
<filter id="filter2_d_3349_4884" x="100.968" y="23.1044" width="130.534" height="82.4425" filterUnits="userSpaceOnUse" color-interpolation-filters="sRGB">
<feFlood flood-opacity="0" result="BackgroundImageFix"/>
<feColorMatrix in="SourceAlpha" type="matrix" values="0 0 0 0 0 0 0 0 0 0 0 0 0 0 0 0 0 0 127 0" result="hardAlpha"/>
<feOffset dy="1.24913"/>
<feGaussianBlur stdDeviation="13.1158"/>
<feComposite in2="hardAlpha" operator="out"/>
<feColorMatrix type="matrix" values="0 0 0 0 0 0 0 0 0 0 0 0 0 0 0 0 0 0 0.1 0"/>
<feBlend mode="normal" in2="BackgroundImageFix" result="effect1_dropShadow_3349_4884"/>
<feBlend mode="normal" in="SourceGraphic" in2="effect1_dropShadow_3349_4884" result="shape"/>
</filter>
<linearGradient id="paint0_linear_3349_4884" x1="127.199" y1="48.0869" x2="207.77" y2="58.2592" gradientUnits="userSpaceOnUse">
<stop stop-color="white" style="stop-color:white;stop-opacity:1;"/>
<stop offset="0.5" stop-color="white" stop-opacity="0.2" style="stop-color:white;stop-opacity:0.2;"/>
<stop offset="1" stop-color="white" style="stop-color:white;stop-opacity:1;"/>
</linearGradient>
<linearGradient id="paint1_linear_3349_4884" x1="42" y1="40" x2="305.419" y2="54.4966" gradientUnits="userSpaceOnUse">
<stop stop-color="white" style="stop-color:white;stop-opacity:1;"/>
<stop offset="0.5" stop-color="white" stop-opacity="0.2" style="stop-color:white;stop-opacity:0.2;"/>
<stop offset="1" stop-color="white" style="stop-color:white;stop-opacity:1;"/>
</linearGradient>
<clipPath id="clip0_3349_4884">
<path d="M42 83.2C42 68.0786 42 60.5179 44.9428 54.7423C47.5314 49.6619 51.6619 45.5314 56.7423 42.9428C62.5179 40 70.0786 40 85.2 40H250.8C265.921 40 273.482 40 279.258 42.9428C284.338 45.5314 288.469 49.6619 291.057 54.7423C294 60.5179 294 68.0786 294 83.2V218.8C294 233.921 294 241.482 291.057 247.258C288.469 252.338 284.338 256.469 279.258 259.057C273.482 262 265.921 262 250.8 262H85.2C70.0786 262 62.5179 262 56.7423 259.057C51.6619 256.469 47.5314 252.338 44.9428 247.258C42 241.482 42 233.921 42 218.8V83.2Z" fill="white" style="fill:white;fill-opacity:1;"/>
</clipPath>
</defs>
</svg>
