<svg width="62" height="62" viewBox="0 0 62 62" fill="none" xmlns="http://www.w3.org/2000/svg">
<path d="M62 45.1072C62 54.4369 54.4369 62 45.1072 62H16.8928C7.56314 62 0 54.4369 0 45.1072V16.8928C0 7.56314 7.56314 0 16.8928 0H45.1072C54.4369 0 62 7.56314 62 16.8928V45.1072ZM33.4072 22.8398C32.0214 25.3323 29.9587 25.2827 28.542 22.8291L23.1693 13.5235C22.6287 12.5872 21.4314 12.2666 20.4953 12.8073C19.5594 13.3479 19.2389 14.5448 19.7793 15.4808L25.1523 24.7861C26.5688 27.2397 25.5805 29.0517 22.7295 29.0059L11.9539 29.0298C10.8624 29.0322 9.98007 29.92 9.9844 31.0115C9.98871 32.0975 10.8693 32.976 11.9553 32.9776L22.6592 32.9941C25.5107 33.0402 26.4875 34.7331 25.1016 37.2256L19.7643 46.5039C19.2227 47.4454 19.5436 48.6476 20.4823 49.194C21.4253 49.743 22.6349 49.4227 23.1826 48.479L28.5918 39.1592C29.9777 36.6671 32.0403 36.7172 33.457 39.1709L38.8291 48.4759C39.3695 49.4121 40.5665 49.7329 41.5027 49.1925C42.4391 48.6521 42.7599 47.4548 42.2193 46.5185L36.8467 37.2139C35.43 34.7601 36.4183 32.9483 39.2695 32.9941L50.0483 32.9702C51.1376 32.9678 52.0182 32.0819 52.0141 30.9927C52.0101 29.9057 51.1265 29.0273 50.0396 29.0298L39.2549 29.0537C36.4034 29.0077 35.4266 27.3157 36.8125 24.8232L42.2257 15.4951C42.7711 14.5552 42.4523 13.3511 41.5132 12.8042C40.5722 12.2562 39.365 12.5757 38.8183 13.5175L33.4072 22.8398Z" fill="#306FF6" style="fill:#306FF6;fill:color(display-p3 0.1882 0.4353 0.9647);fill-opacity:1;"/>
</svg>
