<svg width="62" height="62" viewBox="0 0 62 62" fill="none" xmlns="http://www.w3.org/2000/svg">
<path d="M62 45.1072C62 54.4369 54.4369 62 45.1072 62H16.8928C7.56314 62 0 54.4369 0 45.1072V16.8928C0 7.56314 7.56314 0 16.8928 0H45.1072C54.4369 0 62 7.56314 62 16.8928V45.1072Z" fill="#306FF6" style="fill:#306FF6;fill:color(display-p3 0.1882 0.4353 0.9647);fill-opacity:1;"/>
<path d="M30.9974 17.6667L31.1547 17.6761L31.2334 17.6867L31.3147 17.7041L31.4627 17.7494C31.5649 17.7871 31.6621 17.8373 31.752 17.8987L31.8907 18.0081L32.2307 18.2987C34.9204 20.5328 38.3198 21.7325 41.816 21.6814L42.272 21.6681C42.5701 21.6545 42.8642 21.7413 43.1072 21.9146C43.3501 22.0879 43.5279 22.3378 43.612 22.6241C44.2672 24.8529 44.4677 27.1906 44.2016 29.4984C43.9355 31.8062 43.2082 34.0369 42.0629 36.0581C40.9176 38.0792 39.3777 39.8495 37.5348 41.2638C35.6918 42.6781 33.5833 43.7074 31.3347 44.2907C31.1152 44.3477 30.8848 44.3477 30.6654 44.2907C28.4166 43.7076 26.308 42.6783 24.4649 41.2641C22.6218 39.8499 21.0817 38.0796 19.9363 36.0584C18.7909 34.0373 18.0635 31.8065 17.7973 29.4986C17.5311 27.1908 17.7315 24.8529 18.3867 22.6241C18.4708 22.3378 18.6486 22.0879 18.8916 21.9146C19.1345 21.7413 19.4286 21.6545 19.7267 21.6681C23.3766 21.8349 26.9574 20.6334 29.768 18.2987L30.1187 17.9987L30.2467 17.8987C30.3366 17.8373 30.4338 17.7871 30.536 17.7494L30.6854 17.7041C30.7376 17.6915 30.7906 17.6821 30.844 17.6761L30.9974 17.6667ZM31 27.0001C30.3273 26.9999 29.6793 27.254 29.186 27.7114C28.6926 28.1689 28.3905 28.7959 28.34 29.4667L28.3334 29.6667L28.34 29.8667C28.3729 30.2996 28.5109 30.7178 28.7421 31.0852C28.9733 31.4525 29.2907 31.7579 29.6667 31.9747V34.3334L29.676 34.4894C29.7162 34.8269 29.8836 35.1363 30.1442 35.3544C30.4048 35.5725 30.7389 35.6829 31.0782 35.663C31.4174 35.6431 31.7363 35.4944 31.9696 35.2472C32.2029 35.0001 32.333 34.6733 32.3334 34.3334L32.3347 31.9761C32.8431 31.6825 33.2405 31.2293 33.4651 30.6869C33.6897 30.1444 33.729 29.543 33.5769 28.9759C33.4248 28.4088 33.0898 27.9078 32.6239 27.5506C32.1579 27.1933 31.5871 26.9998 31 27.0001Z" fill="white" style="fill:white;fill-opacity:1;"/>
</svg>

