<svg width="74" height="74" viewBox="0 0 74 74" fill="none" xmlns="http://www.w3.org/2000/svg">
<path d="M62 45.1072C62 54.4369 54.4369 62 45.1072 62H16.8928C7.56314 62 0 54.4369 0 45.1072V16.8928C0 7.56314 7.56314 0 16.8928 0H45.1072C54.4369 0 62 7.56314 62 16.8928V45.1072ZM33.4072 22.8398C32.0214 25.3323 29.9587 25.2827 28.542 22.8291L23.1693 13.5235C22.6287 12.5872 21.4314 12.2666 20.4953 12.8073C19.5594 13.3479 19.2389 14.5448 19.7793 15.4808L25.1523 24.7861C26.5688 27.2397 25.5805 29.0517 22.7295 29.0059L11.9539 29.0298C10.8624 29.0322 9.98007 29.92 9.9844 31.0115C9.98871 32.0975 10.8693 32.976 11.9553 32.9776L22.6592 32.9941C25.5107 33.0402 26.4875 34.7331 25.1016 37.2256L19.7643 46.5039C19.2227 47.4454 19.5436 48.6476 20.4823 49.194C21.4253 49.743 22.6349 49.4227 23.1826 48.479L28.5918 39.1592C29.9777 36.6671 32.0403 36.7172 33.457 39.1709L38.8291 48.4759C39.3695 49.4121 40.5665 49.7329 41.5027 49.1925C42.4391 48.6521 42.7599 47.4548 42.2193 46.5185L36.8467 37.2139C35.43 34.7601 36.4183 32.9483 39.2695 32.9941L50.0483 32.9702C51.1376 32.9678 52.0182 32.0819 52.0141 30.9927C52.0101 29.9057 51.1265 29.0273 50.0396 29.0298L39.2549 29.0537C36.4034 29.0077 35.4266 27.3157 36.8125 24.8232L42.2257 15.4951C42.7711 14.5552 42.4523 13.3511 41.5132 12.8042C40.5722 12.2562 39.365 12.5757 38.8183 13.5175L33.4072 22.8398Z" fill="#306FF6" style="fill:#306FF6;fill:color(display-p3 0.1882 0.4353 0.9647);fill-opacity:1;"/>
<g clip-path="url(#clip0_3244_3758)">
<circle cx="58" cy="58" r="10" fill="#F2F2F2" style="fill:#F2F2F2;fill:color(display-p3 0.9490 0.9490 0.9490);fill-opacity:1;"/>
<path d="M58.116 43.6668C60.5926 43.6869 63.0219 44.3493 65.1667 45.5877C67.3285 46.8359 69.1267 48.6272 70.3835 50.784C71.6403 52.9408 72.3126 55.3884 72.3328 57.8846C72.3529 60.3807 71.7205 62.8387 70.4988 65.0154C69.2769 67.1923 67.5074 69.0127 65.366 70.2957C63.2246 71.5786 60.7855 72.2804 58.2898 72.3309C55.794 72.3814 53.328 71.7791 51.1365 70.5838C48.9449 69.3885 47.1036 67.6411 45.7947 65.5154C44.4859 63.3899 43.7545 60.9595 43.6736 58.4647V58.4471L43.6667 58.0154V57.9842L43.6736 57.5526V57.5359C43.7539 55.0607 44.4744 52.648 45.7644 50.534C47.0545 48.42 48.8704 46.6758 51.0349 45.4725C53.1995 44.2691 55.6395 43.6467 58.116 43.6668ZM62.0212 55.0008C61.9451 54.996 61.8694 55.0174 61.8074 55.0613L61.739 55.1229L57.3738 59.4871L56.6667 60.1942L55.9597 59.4871L54.2556 57.784L54.196 57.7313C54.1334 57.6858 54.0567 57.6629 53.9792 57.6678C53.8984 57.673 53.8217 57.7072 53.7644 57.7645C53.7071 57.8218 53.6729 57.8984 53.6677 57.9793C53.6629 58.0554 53.6854 58.1302 53.7292 58.1922L53.7849 58.2557L56.4167 60.8875L56.4705 60.9344C56.5276 60.9762 56.5958 60.9998 56.6667 60.9998L56.7214 60.9949C56.7724 60.9864 56.82 60.9651 56.8621 60.9344L56.9158 60.8875L62.2078 55.5965L62.2712 55.5252C62.3151 55.4632 62.3375 55.3884 62.3328 55.3123C62.3276 55.2314 62.2934 55.1548 62.2361 55.0975C62.1788 55.0402 62.1021 55.006 62.0212 55.0008Z" fill="#202329" stroke="#FAFAFA" style="fill:#202329;fill:color(display-p3 0.1255 0.1373 0.1608);fill-opacity:1;stroke:#FAFAFA;stroke:color(display-p3 0.9816 0.9816 0.9816);stroke-opacity:1;" stroke-width="2"/>
</g>
<defs>
<clipPath id="clip0_3244_3758">
<rect width="32" height="32" fill="white" style="fill:white;fill-opacity:1;" transform="translate(42 42)"/>
</clipPath>
</defs>
</svg>
