<svg width="115" height="43" viewBox="0 0 115 43" fill="none" xmlns="http://www.w3.org/2000/svg">
<path d="M104.089 33.488C96.7747 33.488 93.0947 27.922 93.0947 21.528C93.0947 15.134 96.7747 9.56799 104.089 9.56799C109.057 9.56799 112.553 11.776 114.255 16.1L109.931 17.894C108.735 15.272 106.941 13.8 104.089 13.8C100.087 13.8 98.1547 17.158 98.1547 21.528C98.1547 25.898 100.087 29.256 104.089 29.256C106.941 29.256 108.689 27.784 109.931 25.162L114.255 26.91C112.553 31.234 109.057 33.488 104.089 33.488Z" fill="#202329" style="fill:#202329;fill:color(display-p3 0.1255 0.1373 0.1608);fill-opacity:1;"/>
<path d="M85.8256 6.532C83.9396 6.532 82.5596 5.106 82.5596 3.266C82.5596 1.426 83.9396 0 85.8256 0C87.7116 0 89.1376 1.426 89.1376 3.266C89.1376 5.106 87.7116 6.532 85.8256 6.532ZM88.2636 33.12H83.3876V9.936H88.2636V33.12Z" fill="#202329" style="fill:#202329;fill:color(display-p3 0.1255 0.1373 0.1608);fill-opacity:1;"/>
<path d="M69.2667 42.872C63.3327 42.872 59.0547 40.204 59.0547 35.236C59.0547 33.258 59.8367 31.602 61.0787 30.544C60.2047 29.716 59.6987 28.52 59.6987 26.91C59.6987 24.794 60.8487 23.184 62.5507 22.264C61.5387 20.976 60.8947 19.32 60.8947 17.388C60.8947 12.604 64.6207 9.56803 69.2207 9.56803C70.7387 9.56803 72.1647 9.93603 73.4067 10.58L77.6847 8.28003L79.6627 11.638L76.3967 13.34C77.1327 14.49 77.5467 15.824 77.5467 17.388C77.5467 22.218 73.8207 25.116 69.2207 25.116C67.8867 25.116 66.6447 24.886 65.5407 24.426C64.6667 24.886 64.2067 25.576 64.2067 26.404C64.2067 27.692 65.1727 28.29 66.5987 28.29H71.7047C76.3047 28.29 79.4787 30.452 79.4787 34.868C79.4787 40.572 74.4647 42.872 69.2667 42.872ZM69.2207 21.16C71.2907 21.16 72.9467 19.688 72.9467 17.388C72.9467 14.996 71.2907 13.524 69.2207 13.524C67.1047 13.524 65.4947 14.996 65.4947 17.388C65.4947 19.688 67.1047 21.16 69.2207 21.16ZM69.2667 38.732C72.5327 38.732 74.6487 37.536 74.6487 35.236C74.6487 33.028 73.0387 32.384 70.6927 32.384H67.1047C66.1847 32.384 65.3567 32.338 64.5287 32.2C63.8387 32.89 63.5627 33.856 63.5627 34.96C63.5627 37.398 65.7707 38.732 69.2667 38.732Z" fill="#202329" style="fill:#202329;fill:color(display-p3 0.1255 0.1373 0.1608);fill-opacity:1;"/>
<path d="M43.5217 33.488C39.6117 33.488 36.4377 31.188 36.4377 26.45C36.4377 21.666 40.3017 18.86 46.3737 18.86H50.4217V17.848C50.4217 14.904 48.3977 13.8 46.0057 13.8C43.7517 13.8 42.2337 14.904 41.5437 16.928L37.3117 15.962C38.0477 12.144 41.4977 9.56799 46.0057 9.56799C51.6177 9.56799 55.2517 12.696 55.2517 18.814V33.12H51.3417L50.6977 29.992C49.1797 32.062 46.9257 33.488 43.5217 33.488ZM44.6717 29.256C47.3857 29.256 50.4217 27.37 50.4217 23.414V22.816H46.5577C43.2917 22.816 41.4977 24.012 41.4977 26.404C41.4977 28.152 42.7857 29.256 44.6717 29.256Z" fill="#202329" style="fill:#202329;fill:color(display-p3 0.1255 0.1373 0.1608);fill-opacity:1;"/>
<path d="M4.876 33.12H0V9.93599H4.876V13.984C6.486 11.27 8.648 9.56799 11.73 9.56799C14.812 9.56799 17.25 11.132 18.17 14.444C19.78 11.5 22.448 9.56799 25.392 9.56799C29.808 9.56799 32.2 12.19 32.2 16.836V33.12H27.37V17.618C27.37 14.95 26.266 13.8 24.104 13.8C21.068 13.8 18.538 17.204 18.538 23.736V33.12H13.708V17.618C13.708 14.95 12.604 13.8 10.442 13.8C7.36 13.8 4.876 17.296 4.876 24.104V33.12Z" fill="#202329" style="fill:#202329;fill:color(display-p3 0.1255 0.1373 0.1608);fill-opacity:1;"/>
</svg>
