<?xml version="1.0" encoding="UTF-8"?>
<svg id="a" xmlns="http://www.w3.org/2000/svg" viewBox="0 0 150 150">
  <defs>
    <style>
      .cls-1 {
        fill: #05c0c7;
        fill-rule: evenodd;
      }

      .cls-2 {
        fill: none;
      }
    </style>
  </defs>
  <path class="cls-2" d="M0,0H150V150H0V0Z"/>
  <path class="cls-1" d="M49.47,56.53c4.75,3.46,11.37,2.45,14.83-2.3l12.38-17.13c3.46-4.75,2.45-11.37-2.3-14.83-4.75-3.46-11.37-2.45-14.83,2.3l-12.52,17.13c-3.31,4.75-2.3,11.37,2.45,14.83Z"/>
  <path class="cls-1" d="M106.19,32.34c-4.75-3.46-11.37-2.45-14.83,2.3L41.55,103.18c-3.46,4.75-2.45,11.38,2.3,14.83,4.75,3.46,11.37,2.45,14.83-2.3L108.49,47.17c3.6-4.75,2.45-11.37-2.3-14.83Z"/>
  <path class="cls-1" d="M44.72,26.86c3.46-4.75,2.45-11.37-2.3-14.83-4.75-3.46-11.37-2.45-14.83,2.3-3.46,4.75-2.45,11.37,2.3,14.83,4.75,3.46,11.37,2.45,14.83-2.3Z"/>
  <path class="cls-1" d="M120.3,121.03c-4.75-3.46-11.37-2.45-14.83,2.3-3.46,4.75-2.45,11.38,2.3,14.83,4.75,3.46,11.37,2.45,14.83-2.3,3.46-4.75,2.45-11.38-2.3-14.83Z"/>
  <path class="cls-1" d="M100.86,93.82c-4.75-3.46-11.37-2.45-14.83,2.3l-12.53,17.13c-3.46,4.75-2.45,11.37,2.3,14.83,4.75,3.46,11.37,2.45,14.83-2.3l12.53-17.13c3.46-4.75,2.45-11.37-2.3-14.83Z"/>
</svg>