<svg width="58" height="58" viewBox="0 0 58 58" fill="none" xmlns="http://www.w3.org/2000/svg" xmlns:xlink="http://www.w3.org/1999/xlink">
<circle cx="17.2535" cy="17.6961" r="13.2" fill="white" style="fill:white;fill-opacity:1;"></circle>
<mask id="path-2-inside-1_3349_4870" fill="white">
<path d="M34.5604 0.200439C42.625 0.200439 46.6578 0.200277 49.7381 1.76978C52.4475 3.15036 54.6505 5.35331 56.0311 8.06274C57.6005 11.1431 57.6004 15.1758 57.6004 23.2405V34.761C57.6004 42.8257 57.6006 46.8584 56.0311 49.9387C54.6505 52.6481 52.4475 54.8511 49.7381 56.2317C46.6578 57.8012 42.625 57.801 34.5604 57.801H23.0399C14.9752 57.801 10.9424 57.8011 7.86212 56.2317C5.15269 54.8512 2.94974 52.6481 1.56915 49.9387C-0.000346565 46.8584 -0.000183105 42.8257 -0.000183105 34.761V23.2405C-0.000183105 15.1757 -0.000353404 11.1431 1.56915 8.06274C2.94972 5.35324 5.15262 3.15035 7.86212 1.76978C10.9425 0.200269 14.9751 0.200439 23.0399 0.200439H34.5604Z"></path>
</mask>
<path d="M34.5604 0.200439C42.625 0.200439 46.6578 0.200277 49.7381 1.76978C52.4475 3.15036 54.6505 5.35331 56.0311 8.06274C57.6005 11.1431 57.6004 15.1758 57.6004 23.2405V34.761C57.6004 42.8257 57.6006 46.8584 56.0311 49.9387C54.6505 52.6481 52.4475 54.8511 49.7381 56.2317C46.6578 57.8012 42.625 57.801 34.5604 57.801H23.0399C14.9752 57.801 10.9424 57.8011 7.86212 56.2317C5.15269 54.8512 2.94974 52.6481 1.56915 49.9387C-0.000346565 46.8584 -0.000183105 42.8257 -0.000183105 34.761V23.2405C-0.000183105 15.1757 -0.000353404 11.1431 1.56915 8.06274C2.94972 5.35324 5.15262 3.15035 7.86212 1.76978C10.9425 0.200269 14.9751 0.200439 23.0399 0.200439H34.5604Z" fill="#FAFAFA" fill-opacity="0.7" style="fill:#FAFAFA;fill:color(display-p3 0.9816 0.9816 0.9816);fill-opacity:0.7;"></path>
<path d="M34.5604 0.200439V-0.999561V0.200439ZM49.7381 1.76978L50.2829 0.700581L50.2829 0.700568L49.7381 1.76978ZM56.0311 8.06274L57.1003 7.51797L57.1003 7.51796L56.0311 8.06274ZM57.6004 34.761H58.8004H57.6004ZM56.0311 49.9387L57.1003 50.4835L57.1003 50.4835L56.0311 49.9387ZM49.7381 56.2317L50.2829 57.3009L50.2829 57.3009L49.7381 56.2317ZM34.5604 57.801V59.001V57.801ZM7.86212 56.2317L7.31733 57.3009L7.31735 57.3009L7.86212 56.2317ZM1.56915 49.9387L0.499945 50.4835L0.499958 50.4835L1.56915 49.9387ZM-0.000183105 34.761H-1.20018H-0.000183105ZM1.56915 8.06274L0.499947 7.51795L0.499945 7.51796L1.56915 8.06274ZM7.86212 1.76978L7.31733 0.700568L7.31733 0.700569L7.86212 1.76978ZM34.5604 0.200439V1.40044C38.6125 1.40044 41.5796 1.40133 43.9207 1.59256C46.2478 1.78265 47.8505 2.15481 49.1933 2.83898L49.7381 1.76978L50.2829 0.700568C48.5453 -0.184754 46.5916 -0.597264 44.1161 -0.799471C41.6546 -1.00053 38.5729 -0.999561 34.5604 -0.999561V0.200439ZM49.7381 1.76978L49.1933 2.83897C51.6769 4.10452 53.6964 6.12391 54.9619 8.60753L56.0311 8.06274L57.1003 7.51796C55.6047 4.58271 53.2181 2.1962 50.2829 0.700581L49.7381 1.76978ZM56.0311 8.06274L54.9619 8.60752C55.646 9.9503 56.0182 11.5531 56.2083 13.8802C56.3995 16.2213 56.4004 19.1883 56.4004 23.2405H57.6004H58.8004C58.8004 19.228 58.8014 16.1463 58.6003 13.6848C58.3981 11.2093 57.9856 9.2555 57.1003 7.51797L56.0311 8.06274ZM57.6004 23.2405H56.4004V34.761H57.6004H58.8004V23.2405H57.6004ZM57.6004 34.761H56.4004C56.4004 38.8131 56.3995 41.7802 56.2083 44.1213C56.0182 46.4484 55.646 48.0512 54.9619 49.3939L56.0311 49.9387L57.1003 50.4835C57.9856 48.746 58.3981 46.7922 58.6003 44.3167C58.8014 41.8552 58.8004 38.7735 58.8004 34.761H57.6004ZM56.0311 49.9387L54.9619 49.3939C53.6964 51.8775 51.6769 53.897 49.1933 55.1625L49.7381 56.2317L50.2829 57.3009C53.2181 55.8053 55.6047 53.4187 57.1003 50.4835L56.0311 49.9387ZM49.7381 56.2317L49.1933 55.1625C47.8505 55.8467 46.2478 56.2188 43.9207 56.4089C41.5796 56.6001 38.6125 56.601 34.5604 56.601V57.801V59.001C38.5729 59.001 41.6546 59.002 44.1161 58.8009C46.5916 58.5987 48.5453 58.1862 50.2829 57.3009L49.7381 56.2317ZM34.5604 57.801V56.601H23.0399V57.801V59.001H34.5604V57.801ZM23.0399 57.801V56.601C18.9877 56.601 16.0207 56.6001 13.6795 56.4089C11.3524 56.2188 9.74968 55.8466 8.4069 55.1625L7.86212 56.2317L7.31735 57.3009C9.05488 58.1862 11.0087 58.5987 13.4842 58.8009C15.9457 59.002 19.0273 59.001 23.0399 59.001V57.801ZM7.86212 56.2317L8.40691 55.1625C5.92329 53.897 3.9039 51.8775 2.63835 49.3939L1.56915 49.9387L0.499958 50.4835C1.99558 53.4187 4.38209 55.8053 7.31733 57.3009L7.86212 56.2317ZM1.56915 49.9387L2.63836 49.3939C1.95418 48.0512 1.58203 46.4484 1.39194 44.1213C1.20071 41.7802 1.19982 38.8131 1.19982 34.761H-0.000183105H-1.20018C-1.20018 38.7735 -1.20116 41.8552 -1.00009 44.3167C-0.797887 46.7922 -0.385377 48.746 0.499945 50.4835L1.56915 49.9387ZM-0.000183105 34.761H1.19982V23.2405H-0.000183105H-1.20018V34.761H-0.000183105ZM-0.000183105 23.2405H1.19982C1.19982 19.1883 1.20071 16.2212 1.39194 13.8801C1.58202 11.553 1.95418 9.95031 2.63836 8.60753L1.56915 8.06274L0.499945 7.51796C-0.38538 9.2555 -0.797891 11.2093 -1.0001 13.6848C-1.20116 16.1462 -1.20018 19.2279 -1.20018 23.2405H-0.000183105ZM1.56915 8.06274L2.63836 8.60754C3.90388 6.12383 5.9232 4.10451 8.40691 2.83898L7.86212 1.76978L7.31733 0.700569C4.38203 2.19619 1.99557 4.58266 0.499947 7.51795L1.56915 8.06274ZM7.86212 1.76978L8.40691 2.83898C9.74969 2.1548 11.3524 1.78264 13.6795 1.59256C16.0206 1.40133 18.9877 1.40044 23.0399 1.40044V0.200439V-0.999561C19.0273 -0.999561 15.9456 -1.00054 13.4841 -0.799474C11.0086 -0.597268 9.05488 -0.184757 7.31733 0.700568L7.86212 1.76978ZM23.0399 0.200439V1.40044H34.5604V0.200439V-0.999561H23.0399V0.200439Z" fill="url(#paint0_linear_3349_4870)" style="" mask="url(#path-2-inside-1_3349_4870)"></path>
<rect width="58" height="58" transform="matrix(-1 0 0 1 58 0)" fill="url(#pattern0_3349_4870)" style=""></rect>
<defs>
<pattern id="pattern0_3349_4870" patternContentUnits="objectBoundingBox" width="1" height="1">
<use xlink:href="#image0_3349_4870" transform="scale(0.00862069)"></use>
</pattern>
<linearGradient id="paint0_linear_3349_4870" x1="-0.000183105" y1="0.200439" x2="60.2513" y2="3.12148" gradientUnits="userSpaceOnUse">
<stop stop-color="white" style="stop-color:white;stop-opacity:1;"></stop>
<stop offset="0.5" stop-color="white" stop-opacity="0.2" style="stop-color:white;stop-opacity:0.2;"></stop>
<stop offset="1" stop-color="white" style="stop-color:white;stop-opacity:1;"></stop>
</linearGradient>
<image id="image0_3349_4870" width="116" height="116" preserveAspectRatio="none"></image>
</defs>
</svg>